<?xml version="1.0" encoding="UTF-8" standalone="no"?>
<!-- Created with Inkscape (http://www.inkscape.org/) -->

<svg
   xmlns:dc="http://purl.org/dc/elements/1.1/"
   xmlns:cc="http://creativecommons.org/ns#"
   xmlns:rdf="http://www.w3.org/1999/02/22-rdf-syntax-ns#"
   xmlns:svg="http://www.w3.org/2000/svg"
   xmlns="http://www.w3.org/2000/svg"
   xmlns:sodipodi="http://sodipodi.sourceforge.net/DTD/sodipodi-0.dtd"
   xmlns:inkscape="http://www.inkscape.org/namespaces/inkscape"
   width="512"
   height="512"
   viewBox="0 0 135.46666 135.46667"
   version="1.1"
   id="svg84"
   inkscape:version="0.92.4 (5da689c313, 2019-01-14)"
   sodipodi:docname="icon.svg">
  <defs
     id="defs78" />
  <sodipodi:namedview
     id="base"
     pagecolor="#ffffff"
     bordercolor="#666666"
     borderopacity="1.0"
     inkscape:pageopacity="0.0"
     inkscape:pageshadow="2"
     inkscape:zoom="0.35"
     inkscape:cx="-127.14286"
     inkscape:cy="560"
     inkscape:document-units="mm"
     inkscape:current-layer="layer1"
     showgrid="false"
     units="px"
     inkscape:window-width="1366"
     inkscape:window-height="705"
     inkscape:window-x="-8"
     inkscape:window-y="-8"
     inkscape:window-maximized="1" />
  <metadata
     id="metadata81">
    <rdf:RDF>
      <cc:Work
         rdf:about="">
        <dc:format>image/svg+xml</dc:format>
        <dc:type
           rdf:resource="http://purl.org/dc/dcmitype/StillImage" />
        <dc:title></dc:title>
      </cc:Work>
    </rdf:RDF>
  </metadata>
  <g
     inkscape:label="Camada 1"
     inkscape:groupmode="layer"
     id="layer1"
     transform="translate(0,-161.53332)">
    <g
       id="g102"
       transform="matrix(5.6591313,0,0,5.6591313,256.17299,-192.16589)">
      <path
         inkscape:export-ydpi="560.5033"
         inkscape:export-xdpi="560.5033"
         inkscape:connector-curvature="0"
         id="path4667"
         d="m -33.680025,86.291856 c -0.42878,-0.130223 -1.046986,-0.563494 -1.470175,-1.030374 -0.84586,-0.933188 -1.900149,-2.830294 -2.675279,-4.813943 l -0.347891,-0.890293 -0.635167,-0.209769 c -2.181988,-0.720621 -3.928683,-1.689726 -4.889643,-2.712882 -0.652716,-0.694961 -0.891331,-1.171237 -0.931933,-1.860142 -0.04057,-0.688344 0.116224,-1.151494 0.613733,-1.812893 0.826241,-1.09842 2.31936,-2.06943 4.762842,-3.097386 l 1.063522,-0.447417 0.346338,-0.94691 c 0.736204,-2.012827 1.799847,-3.851716 2.654046,-4.588471 1.099325,-0.948178 2.162637,-0.970115 3.346282,-0.06903 0.48526,0.369417 1.207947,1.235722 1.721184,2.06323 0.41786,0.673728 1.294749,2.393661 1.590505,3.119622 0.171601,0.421209 0.200274,0.448043 0.66772,0.624874 0.878557,0.332351 2.854319,1.333168 3.621823,1.834625 0.952626,0.622407 1.804981,1.470536 2.112813,2.102338 0.485588,0.996628 0.242258,1.950448 -0.754335,2.956896 -0.892349,0.901174 -2.656442,1.937285 -4.617809,2.712195 l -0.840492,0.332067 -0.37826,1.008917 c -0.499758,1.332986 -1.277475,2.948757 -1.819742,3.780668 -0.527603,0.809413 -1.242783,1.544041 -1.735259,1.782445 -0.428051,0.207216 -1.027608,0.276201 -1.404823,0.161638 z m 1.330511,-1.739976 c 1.223942,-0.55539 2.15428,-2.112252 2.987663,-4.999668 l 0.263304,-0.912266 0.901211,-0.338948 c 2.509445,-0.94381 4.061244,-1.987596 4.605865,-3.098039 0.254777,-0.519473 0.252323,-1.269688 -0.0058,-1.761483 -0.591035,-1.126315 -2.292853,-2.247985 -4.651605,-3.065904 l -0.873355,-0.302844 -0.225172,-0.691891 c -0.123843,-0.380541 -0.394402,-1.083995 -0.601242,-1.563233 -1.569976,-3.637561 -3.64442,-4.462333 -5.477795,-2.177904 -0.676241,0.842612 -1.389315,2.435341 -1.715121,3.830909 l -0.139594,0.597942 -0.803389,0.310248 c -1.223741,0.472579 -2.897977,1.33602 -3.593581,1.853291 -1.63393,1.215037 -2.00925,2.302397 -1.2037,3.48731 0.57558,0.846642 2.312838,1.844088 4.402946,2.52795 l 1.195088,0.391021 0.141211,0.595469 c 0.522537,2.203463 1.654951,4.289344 2.735008,5.037824 0.660751,0.457901 1.434361,0.563232 2.058058,0.280216 z"
         style="fill:#000000;stroke:#000000;stroke-width:0.0079396;stroke-miterlimit:4;stroke-dasharray:none;stroke-opacity:1" />
      <text
         inkscape:export-ydpi="560.5033"
         inkscape:export-xdpi="560.5033"
         transform="scale(-1,1)"
         id="text4595"
         y="76.556679"
         x="31.243681"
         style="font-style:normal;font-weight:normal;font-size:5.12904978px;line-height:1.25;font-family:sans-serif;letter-spacing:0px;word-spacing:0px;fill:#000000;fill-opacity:1;stroke:none;stroke-width:0.02645833;stroke-miterlimit:4;stroke-dasharray:none"
         xml:space="preserve"><tspan
           style="font-style:normal;font-variant:normal;font-weight:normal;font-stretch:normal;font-family:Bahnschrift;-inkscape-font-specification:Bahnschrift;stroke-width:0.02645833;stroke-miterlimit:4;stroke-dasharray:none"
           y="76.556679"
           x="31.243681"
           id="tspan4593"
           sodipodi:role="line">M</tspan></text>
      <path
         inkscape:export-ydpi="560.5033"
         inkscape:export-xdpi="560.5033"
         inkscape:connector-curvature="0"
         id="path4669"
         d="m -33.449311,79.160602 c 0,-0.282336 -0.0241,-0.318752 -0.258037,-0.38985 -0.655667,-0.19927 -0.686196,-0.195594 -0.862904,0.103904 -0.191166,0.324003 -0.166742,0.315953 -0.47496,0.156567 -0.192632,-0.09961 -0.227626,-0.156658 -0.182649,-0.297735 0.0306,-0.09598 0.05921,-0.225019 0.06359,-0.28675 0.0077,-0.109095 -0.611834,-0.642025 -0.746392,-0.642025 -0.03692,0 -0.171672,0.08796 -0.299443,0.195478 l -0.232312,0.195477 -0.211297,-0.220547 -0.211297,-0.220547 0.199329,-0.18726 c 0.26208,-0.246211 0.250321,-0.374397 -0.06897,-0.751827 -0.255985,-0.302599 -0.276372,-0.311158 -0.544854,-0.228759 -0.271511,0.08333 -0.28243,0.07824 -0.411152,-0.191693 -0.07273,-0.152513 -0.121769,-0.286193 -0.108981,-0.297067 0.01279,-0.01087 0.142114,-0.08024 0.28739,-0.154156 0.253101,-0.12877 0.261809,-0.148268 0.208395,-0.466624 -0.101146,-0.60285 -0.160898,-0.689521 -0.475361,-0.689521 -0.280371,0 -0.284273,-0.0045 -0.260001,-0.297735 0.02321,-0.280427 0.04162,-0.299147 0.316753,-0.322041 0.281017,-0.02338 0.295341,-0.03936 0.377131,-0.420737 0.122582,-0.571579 0.113473,-0.606235 -0.188003,-0.71525 l -0.273022,-0.09873 0.116768,-0.279466 c 0.148713,-0.35592 0.120601,-0.340132 0.410685,-0.230638 0.290958,0.109825 0.451533,0.0056 0.698898,-0.453758 l 0.147459,-0.273814 -0.215718,-0.225161 -0.215718,-0.225161 0.237978,-0.227997 0.237978,-0.227998 0.184293,0.173134 c 0.244767,0.229947 0.364945,0.218897 0.764113,-0.07026 0.224581,-0.162686 0.320563,-0.283604 0.289459,-0.364658 -0.157212,-0.40969 -0.142229,-0.482041 0.118661,-0.572988 0.140887,-0.04911 0.265161,-0.0893 0.276166,-0.0893 0.011,0 0.09165,0.121429 0.179219,0.269844 l 0.159212,0.269844 0.384553,-0.08052 c 0.494025,-0.103444 0.583043,-0.181094 0.583043,-0.508586 0,-0.259276 0.01037,-0.268164 0.313019,-0.268164 0.310606,0 0.313207,0.0026 0.337432,0.33185 l 0.02441,0.331851 0.431406,0.09674 c 0.45455,0.101931 0.640439,0.07903 0.640439,-0.0789 0,-0.05248 0.04501,-0.156979 0.100021,-0.232212 0.08559,-0.117057 0.138085,-0.123518 0.363907,-0.0448 0.218292,0.0761 0.254774,0.121115 0.211153,0.260555 -0.146265,0.467545 -0.139958,0.491081 0.190146,0.709533 0.391221,0.258898 0.537122,0.266129 0.779289,0.03862 l 0.185927,-0.174668 0.206984,0.206985 0.206985,0.206984 -0.169455,0.237977 c -0.216553,0.304121 -0.213744,0.34581 0.04888,0.725465 0.22846,0.330262 0.350434,0.373156 0.691915,0.243325 0.182891,-0.06954 0.215038,-0.05463 0.286259,0.132689 0.113252,0.297876 0.06432,0.447215 -0.164783,0.502887 -0.170887,0.04153 -0.197275,0.09104 -0.192262,0.360764 0.01125,0.605182 0.08226,0.737139 0.411332,0.764383 0.281207,0.02328 0.298764,0.04085 0.322063,0.322357 0.02309,0.279032 0.01063,0.297811 -0.19849,0.298951 -0.311922,0.0017 -0.391247,0.07195 -0.491736,0.435462 -0.143089,0.517617 -0.116501,0.649632 0.14951,0.742364 0.244925,0.08538 0.272134,0.154893 0.186227,0.475763 -0.04526,0.169029 -0.08043,0.181384 -0.385994,0.135563 -0.306019,-0.04589 -0.354417,-0.02877 -0.539107,0.190723 -0.301773,0.358636 -0.336645,0.542876 -0.141976,0.750093 0.213684,0.227455 0.209336,0.297136 -0.03274,0.524553 l -0.199025,0.186973 -0.232337,-0.222593 -0.232337,-0.222593 -0.268576,0.16599 c -0.447371,0.27649 -0.553093,0.433447 -0.458876,0.681255 0.110907,0.291706 0.10397,0.338279 -0.05729,0.384647 -0.07642,0.02197 -0.201662,0.06576 -0.278319,0.09732 -0.109015,0.04487 -0.165743,-0.0057 -0.260419,-0.232331 -0.116185,-0.278071 -0.132897,-0.287482 -0.416396,-0.234479 -0.660499,0.123488 -0.690822,0.142297 -0.716489,0.444428 -0.01823,0.21459 -0.06692,0.295816 -0.19849,0.331094 -0.387328,0.103862 -0.452219,0.06619 -0.452219,-0.26251 z m 1.259901,-0.994847 c 1.398777,-0.372298 2.495176,-1.509914 2.781217,-2.885771 0.485853,-2.336955 -1.319192,-4.536199 -3.726702,-4.540568 -1.68025,-0.0031 -3.172585,1.068577 -3.657417,2.626345 -0.200517,0.644262 -0.200517,1.643778 0,2.28804 0.375525,1.206566 1.390025,2.165716 2.649442,2.504892 0.542938,0.14622 1.41873,0.149386 1.95346,0.0071 z"
         style="fill:#000000;stroke:#000000;stroke-width:0.0079396;stroke-miterlimit:4;stroke-dasharray:none;stroke-opacity:1" />
    </g>
  </g>
</svg>
